<?xml version="1.0" encoding="utf-8"?>
<!-- Generator: Adobe Illustrator 22.1.0, SVG Export Plug-In . SVG Version: 6.00 Build 0)  -->
<svg version="1.1" id="Layer_1" xmlns="http://www.w3.org/2000/svg" xmlns:xlink="http://www.w3.org/1999/xlink" x="0px" y="0px"
	 viewBox="0 0 22.4 23.2" style="enable-background:new 0 0 22.4 23.2;" xml:space="preserve">
<style type="text/css">
	.st0{fill:#27E150;}
</style>
<g>
	<g>
		<path class="st0" d="M14,0.5L6.8,9C6.7,9.1,6.6,9,6.6,8.9v0V1.4C6.6,0.6,5.9,0,5.1,0H1.4C0.6,0,0,0.6,0,1.4v20.3
			c0,0.8,0.6,1.4,1.4,1.4h3.7c0.8,0,1.4-0.6,1.4-1.4V18c0,0,0-0.1,0-0.1L20.7,1.2c0.3-0.4,0.1-1-0.5-1L15.2,0
			C14.7,0,14.3,0.2,14,0.5z"/>
	</g>
	<g>
		<path class="st0" d="M11.6,16.1l3.9,6.7c0.1,0.2,0.4,0.4,0.7,0.4l5.4-0.1c0.6,0,0.9-0.6,0.6-1.1l-6.1-10.2
			c-0.3-0.4-0.9-0.5-1.2-0.1l-3.2,3.6C11.5,15.5,11.5,15.8,11.6,16.1z"/>
	</g>
</g>
</svg>
