<?xml version="1.0" encoding="utf-8"?>
<!-- Generator: Adobe Illustrator 22.1.0, SVG Export Plug-In . SVG Version: 6.00 Build 0)  -->
<svg version="1.1" id="Layer_1" xmlns="http://www.w3.org/2000/svg" xmlns:xlink="http://www.w3.org/1999/xlink" x="0px" y="0px"
	 viewBox="0 0 181 187.9" style="enable-background:new 0 0 181 187.9;" xml:space="preserve">
<style type="text/css">
	.st0{fill:url(#SVGID_1_);}
	.st1{fill:url(#SVGID_2_);}
</style>
<title>Bitmap</title>
<g>
	<g>
		<linearGradient id="SVGID_1_" gradientUnits="userSpaceOnUse" x1="95.3964" y1="181.3595" x2="72.2045" y2="-7.5232">
			<stop  offset="0" style="stop-color:#03E0A3"/>
			<stop  offset="1" style="stop-color:#25E156"/>
		</linearGradient>
		<path class="st0" d="M113.4,4.3L54.9,72.6c-0.6,0.7-1.8,0.3-1.8-0.7v0V11.7C53.1,5.2,47.9,0,41.5,0H11.7C5.2,0,0,5.2,0,11.7v164.6
			c0,6.4,5.2,11.7,11.7,11.7h29.8c6.4,0,11.7-5.2,11.7-11.7V146c0-0.2,0.1-0.5,0.2-0.6L167.5,10c2.8-3.3,0.5-8.3-3.8-8.4l-41.2-1.3
			C119.1,0.1,115.7,1.6,113.4,4.3z"/>
	</g>
	<g>
		<linearGradient id="SVGID_2_" gradientUnits="userSpaceOnUse" x1="141.6841" y1="191.3838" x2="129.4919" y2="92.0863">
			<stop  offset="0" style="stop-color:#03E0A3"/>
			<stop  offset="1" style="stop-color:#25E156"/>
		</linearGradient>
		<path class="st1" d="M94.1,130.5l31.9,54.4c1.1,1.9,3.1,3,5.3,3l43.7-0.6c4.7-0.1,7.5-5.2,5.1-9.2l-49.6-82.5
			c-2.1-3.5-7-4-9.7-0.9l-26,28.7C93.1,125.3,92.8,128.2,94.1,130.5z"/>
	</g>
</g>
</svg>
